<?xml version="1.0" standalone="no"?>
<!DOCTYPE svg PUBLIC "-//W3C//DTD SVG 20010904//EN"
 "http://www.w3.org/TR/2001/REC-SVG-20010904/DTD/svg10.dtd">
<svg version="1.0" xmlns="http://www.w3.org/2000/svg"
 width="500.000000pt" height="500.000000pt" viewBox="0 0 500.000000 500.000000"
 preserveAspectRatio="xMidYMid meet">
<metadata>
Created by potrace 1.14, written by Peter Selinger 2001-2017
</metadata>
<g transform="translate(0.000000,500.000000) scale(0.100000,-0.100000)"
fill="#000000" stroke="none">
<path d="M2335 4810 c-1454 -5 -1604 -7 -1647 -22 -207 -74 -356 -202 -443
-383 -80 -165 -75 -43 -75 -1904 0 -1084 3 -1676 10 -1712 44 -234 188 -426
395 -529 149 -74 29 -70 1905 -70 1890 0 1755 -5 1920 76 81 40 109 60 185
138 73 73 99 107 132 176 80 164 76 120 82 910 4 388 4 1160 1 1715 l-5 1010
-25 80 c-35 110 -90 204 -168 287 -104 110 -223 181 -357 214 -70 16 -394 19
-1910 14z"/>
</g>
</svg>
